<mxfile host="app.diagrams.net" modified="2020-10-20T16:44:39.904Z" agent="5.0 (Windows NT 10.0; WOW64) AppleWebKit/537.36 (KHTML, like Gecko) Chrome/86.0.4240.75 Safari/537.36" etag="0YnCrfh8KTYmMFpKZaOv" version="13.8.0" type="github">
  <diagram id="C5RBs43oDa-KdzZeNtuy" name="Page-1">
    <mxGraphModel dx="1583" dy="607" grid="1" gridSize="10" guides="1" tooltips="1" connect="1" arrows="1" fold="1" page="1" pageScale="1" pageWidth="827" pageHeight="1169" math="0" shadow="0">
      <root>
        <mxCell id="WIyWlLk6GJQsqaUBKTNV-0" />
        <mxCell id="WIyWlLk6GJQsqaUBKTNV-1" parent="WIyWlLk6GJQsqaUBKTNV-0" />
        <mxCell id="jisCu5s0oytdjrbldXhB-1" value="&lt;p style=&quot;margin: 0px ; margin-top: 4px ; text-align: center&quot;&gt;&lt;br&gt;&lt;b&gt;Book&lt;/b&gt;&lt;/p&gt;" style="verticalAlign=top;align=left;overflow=fill;fontSize=12;fontFamily=Helvetica;html=1;" vertex="1" parent="WIyWlLk6GJQsqaUBKTNV-1">
          <mxGeometry x="350" y="330" width="150" height="50" as="geometry" />
        </mxCell>
        <mxCell id="jisCu5s0oytdjrbldXhB-2" value="&lt;p style=&quot;margin: 0px ; margin-top: 4px ; text-align: center&quot;&gt;&lt;br&gt;&lt;b&gt;Author&lt;/b&gt;&lt;/p&gt;" style="verticalAlign=top;align=left;overflow=fill;fontSize=12;fontFamily=Helvetica;html=1;" vertex="1" parent="WIyWlLk6GJQsqaUBKTNV-1">
          <mxGeometry x="450" y="57.5" width="110" height="55" as="geometry" />
        </mxCell>
        <mxCell id="jisCu5s0oytdjrbldXhB-5" value="&lt;p style=&quot;margin: 0px ; margin-top: 4px ; text-align: center&quot;&gt;&lt;br&gt;&lt;b&gt;Owner&lt;/b&gt;&lt;/p&gt;" style="verticalAlign=top;align=left;overflow=fill;fontSize=12;fontFamily=Helvetica;html=1;" vertex="1" parent="WIyWlLk6GJQsqaUBKTNV-1">
          <mxGeometry x="294" y="57.5" width="120" height="60" as="geometry" />
        </mxCell>
        <mxCell id="jisCu5s0oytdjrbldXhB-6" value="&lt;p style=&quot;margin: 0px ; margin-top: 4px ; text-align: center&quot;&gt;&lt;br&gt;&lt;b&gt;Publisher&lt;/b&gt;&lt;/p&gt;" style="verticalAlign=top;align=left;overflow=fill;fontSize=12;fontFamily=Helvetica;html=1;" vertex="1" parent="WIyWlLk6GJQsqaUBKTNV-1">
          <mxGeometry x="610" y="320" width="140" height="60" as="geometry" />
        </mxCell>
        <mxCell id="jisCu5s0oytdjrbldXhB-7" value="&lt;p style=&quot;margin: 0px ; margin-top: 4px ; text-align: center&quot;&gt;&lt;br&gt;&lt;b&gt;Library&lt;/b&gt;&lt;/p&gt;" style="verticalAlign=top;align=left;overflow=fill;fontSize=12;fontFamily=Helvetica;html=1;" vertex="1" parent="WIyWlLk6GJQsqaUBKTNV-1">
          <mxGeometry x="80" y="330" width="140" height="60" as="geometry" />
        </mxCell>
        <mxCell id="jisCu5s0oytdjrbldXhB-8" value="&lt;p style=&quot;margin: 0px ; margin-top: 4px ; text-align: center&quot;&gt;&lt;br&gt;&lt;b&gt;Fiction category&lt;/b&gt;&lt;/p&gt;" style="verticalAlign=top;align=left;overflow=fill;fontSize=12;fontFamily=Helvetica;html=1;" vertex="1" parent="WIyWlLk6GJQsqaUBKTNV-1">
          <mxGeometry x="470" y="570" width="140" height="60" as="geometry" />
        </mxCell>
        <mxCell id="jisCu5s0oytdjrbldXhB-9" value="&lt;p style=&quot;margin: 0px ; margin-top: 4px ; text-align: center&quot;&gt;&lt;br&gt;&lt;b&gt;Mystery category&lt;/b&gt;&lt;/p&gt;" style="verticalAlign=top;align=left;overflow=fill;fontSize=12;fontFamily=Helvetica;html=1;" vertex="1" parent="WIyWlLk6GJQsqaUBKTNV-1">
          <mxGeometry x="300" y="570" width="140" height="60" as="geometry" />
        </mxCell>
        <mxCell id="jisCu5s0oytdjrbldXhB-20" value="" style="endArrow=diamondThin;endFill=0;endSize=24;html=1;entryX=0.25;entryY=0;entryDx=0;entryDy=0;" edge="1" parent="WIyWlLk6GJQsqaUBKTNV-1" target="jisCu5s0oytdjrbldXhB-1">
          <mxGeometry width="160" relative="1" as="geometry">
            <mxPoint x="388" y="118" as="sourcePoint" />
            <mxPoint x="300" y="117.5" as="targetPoint" />
            <Array as="points">
              <mxPoint x="388" y="250" />
            </Array>
          </mxGeometry>
        </mxCell>
        <mxCell id="jisCu5s0oytdjrbldXhB-21" value="" style="endArrow=diamondThin;endFill=0;endSize=24;html=1;" edge="1" parent="WIyWlLk6GJQsqaUBKTNV-1">
          <mxGeometry width="160" relative="1" as="geometry">
            <mxPoint x="220" y="359.58000000000004" as="sourcePoint" />
            <mxPoint x="350" y="359.29" as="targetPoint" />
          </mxGeometry>
        </mxCell>
        <mxCell id="jisCu5s0oytdjrbldXhB-22" value="" style="endArrow=diamondThin;endFill=1;endSize=24;html=1;" edge="1" parent="WIyWlLk6GJQsqaUBKTNV-1">
          <mxGeometry width="160" relative="1" as="geometry">
            <mxPoint x="480" y="110" as="sourcePoint" />
            <mxPoint x="480" y="327" as="targetPoint" />
          </mxGeometry>
        </mxCell>
        <mxCell id="jisCu5s0oytdjrbldXhB-23" value="" style="endArrow=diamondThin;endFill=1;endSize=24;html=1;" edge="1" parent="WIyWlLk6GJQsqaUBKTNV-1">
          <mxGeometry width="160" relative="1" as="geometry">
            <mxPoint x="610" y="354.29" as="sourcePoint" />
            <mxPoint x="500" y="354" as="targetPoint" />
          </mxGeometry>
        </mxCell>
        <mxCell id="jisCu5s0oytdjrbldXhB-24" value="" style="endArrow=open;endFill=1;endSize=12;html=1;entryX=0.066;entryY=1.06;entryDx=0;entryDy=0;entryPerimeter=0;" edge="1" parent="WIyWlLk6GJQsqaUBKTNV-1" target="jisCu5s0oytdjrbldXhB-1">
          <mxGeometry width="160" relative="1" as="geometry">
            <mxPoint x="360" y="568.5699999999999" as="sourcePoint" />
            <mxPoint x="520" y="568.5699999999999" as="targetPoint" />
          </mxGeometry>
        </mxCell>
        <mxCell id="jisCu5s0oytdjrbldXhB-25" value="" style="endArrow=open;endFill=1;endSize=12;html=1;entryX=0.894;entryY=1.06;entryDx=0;entryDy=0;entryPerimeter=0;exitX=0.101;exitY=0;exitDx=0;exitDy=0;exitPerimeter=0;" edge="1" parent="WIyWlLk6GJQsqaUBKTNV-1" source="jisCu5s0oytdjrbldXhB-8" target="jisCu5s0oytdjrbldXhB-1">
          <mxGeometry width="160" relative="1" as="geometry">
            <mxPoint x="484" y="560" as="sourcePoint" />
            <mxPoint x="640" y="559.9999999999999" as="targetPoint" />
            <Array as="points">
              <mxPoint x="484" y="430" />
            </Array>
          </mxGeometry>
        </mxCell>
        <mxCell id="jisCu5s0oytdjrbldXhB-26" value="Owned" style="text;html=1;align=center;verticalAlign=middle;resizable=0;points=[];autosize=1;" vertex="1" parent="WIyWlLk6GJQsqaUBKTNV-1">
          <mxGeometry x="335" y="210" width="50" height="20" as="geometry" />
        </mxCell>
        <mxCell id="jisCu5s0oytdjrbldXhB-27" value="Located" style="text;html=1;align=center;verticalAlign=middle;resizable=0;points=[];autosize=1;" vertex="1" parent="WIyWlLk6GJQsqaUBKTNV-1">
          <mxGeometry x="240" y="370" width="60" height="20" as="geometry" />
        </mxCell>
        <mxCell id="jisCu5s0oytdjrbldXhB-28" value="Publish" style="text;html=1;align=center;verticalAlign=middle;resizable=0;points=[];autosize=1;" vertex="1" parent="WIyWlLk6GJQsqaUBKTNV-1">
          <mxGeometry x="530" y="320" width="50" height="20" as="geometry" />
        </mxCell>
        <mxCell id="jisCu5s0oytdjrbldXhB-29" value="Writes" style="text;html=1;align=center;verticalAlign=middle;resizable=0;points=[];autosize=1;" vertex="1" parent="WIyWlLk6GJQsqaUBKTNV-1">
          <mxGeometry x="500" y="210" width="50" height="20" as="geometry" />
        </mxCell>
        <mxCell id="jisCu5s0oytdjrbldXhB-30" value="1...*" style="text;html=1;align=center;verticalAlign=middle;resizable=0;points=[];autosize=1;" vertex="1" parent="WIyWlLk6GJQsqaUBKTNV-1">
          <mxGeometry x="220" y="310" width="40" height="20" as="geometry" />
        </mxCell>
        <mxCell id="jisCu5s0oytdjrbldXhB-31" value="1...*" style="text;html=1;align=center;verticalAlign=middle;resizable=0;points=[];autosize=1;" vertex="1" parent="WIyWlLk6GJQsqaUBKTNV-1">
          <mxGeometry x="290" y="310" width="40" height="20" as="geometry" />
        </mxCell>
        <mxCell id="jisCu5s0oytdjrbldXhB-32" value="0...*" style="text;html=1;align=center;verticalAlign=middle;resizable=0;points=[];autosize=1;" vertex="1" parent="WIyWlLk6GJQsqaUBKTNV-1">
          <mxGeometry x="505" y="370" width="40" height="20" as="geometry" />
        </mxCell>
        <mxCell id="jisCu5s0oytdjrbldXhB-33" value="1...*" style="text;html=1;align=center;verticalAlign=middle;resizable=0;points=[];autosize=1;" vertex="1" parent="WIyWlLk6GJQsqaUBKTNV-1">
          <mxGeometry x="570" y="370" width="40" height="20" as="geometry" />
        </mxCell>
        <mxCell id="jisCu5s0oytdjrbldXhB-34" value="0...*" style="text;html=1;align=center;verticalAlign=middle;resizable=0;points=[];autosize=1;" vertex="1" parent="WIyWlLk6GJQsqaUBKTNV-1">
          <mxGeometry x="340" y="270" width="40" height="20" as="geometry" />
        </mxCell>
        <mxCell id="jisCu5s0oytdjrbldXhB-35" value="1...*" style="text;html=1;align=center;verticalAlign=middle;resizable=0;points=[];autosize=1;" vertex="1" parent="WIyWlLk6GJQsqaUBKTNV-1">
          <mxGeometry x="330" y="130" width="40" height="20" as="geometry" />
        </mxCell>
        <mxCell id="jisCu5s0oytdjrbldXhB-36" value="1...*" style="text;html=1;align=center;verticalAlign=middle;resizable=0;points=[];autosize=1;" vertex="1" parent="WIyWlLk6GJQsqaUBKTNV-1">
          <mxGeometry x="490" y="120" width="40" height="20" as="geometry" />
        </mxCell>
        <mxCell id="jisCu5s0oytdjrbldXhB-37" value="0...*" style="text;html=1;align=center;verticalAlign=middle;resizable=0;points=[];autosize=1;" vertex="1" parent="WIyWlLk6GJQsqaUBKTNV-1">
          <mxGeometry x="480" y="290" width="40" height="20" as="geometry" />
        </mxCell>
      </root>
    </mxGraphModel>
  </diagram>
</mxfile>
